# xmcd CD database file
#
# Track frame offsets:
#	150
#	28865
#	46392
#	71100
#	93800
#	98970
#	113072
#	130070
#	149297
#	157922
#
# Disc length: 2367 seconds
#
# Revision: 4
# Processed by: cddbd v1.5.2PL0 Copyright (c) Steve Scherf et al.
# Submitted via: CDex 1.70beta2
#
DISCID=82093d0a
DTITLE=Marlena Shaw - Who Is this Bitch, Anyway
DYEAR=2001
DGENRE=Jazz
TTITLE0=Street Walking' Woman
TTITLE1=You Taught Me How To Speak In Love
TTITLE2=Davy
TTITLE3=Feel Like Makin' Love
TTITLE4=The Lord Giveth And The Lord Taketh Away
TTITLE5=You Been Away Too Long
TTITLE6=You
TTITLE7=Loving You Was Like A party
TTITLE8=A Prelude For Rose Marie
TTITLE9=Rose Marie (Mon Cherie)
EXTD=\n YEAR: 2001
EXTT0=
EXTT1=
EXTT2=
EXTT3=
EXTT4=
EXTT5=
EXTT6=
EXTT7=
EXTT8=
EXTT9=
PLAYORDER=
